<svg id="Laag_1" data-name="Laag 1" xmlns="http://www.w3.org/2000/svg" viewBox="0 0 165.23 118.52"><defs><style>.cls-1{fill:red;}</style></defs><path class="cls-1" d="M82.61.29C37.29.29.41,26.74.41,59.26s36.88,59,82.2,59,82.21-26.45,82.21-59S127.94.29,82.61.29Zm0,114.3c-43.31,0-78.55-24.82-78.55-55.33S39.3,3.93,82.61,3.93s78.56,24.82,78.56,55.33S125.93,114.59,82.61,114.59Z"/><path class="cls-1" d="M85.7,34.3l15.17,5.41L107,25.62l-3.35-1.45-4,9.26L90.79,18.14a8.29,8.29,0,0,0-14.36,0L54.9,55.43l3.15,1.83L79.59,20a4.79,4.79,0,0,1,8,0l8.11,14-8.81-3.16Z"/><path class="cls-1" d="M109.32,50.23l-3.15,1.83,18.59,32.21a4.65,4.65,0,0,1-4,7H96.37l6.95-8-2.75-2.38-10.4,12L100.65,104l2.66-2.5-6.2-6.58h23.62a8.29,8.29,0,0,0,7.18-12.43Z"/><path class="cls-1" d="M42.46,88.9a4.59,4.59,0,0,1,0-4.59l8.22-13.42,1.85,7.86,3.55-.83-3.2-13.58L37.72,66.88l.6,3.6,9.26-1.55L39.31,82.44a8.29,8.29,0,0,0,7.18,12.43H80V91.23H46.49A4.64,4.64,0,0,1,42.46,88.9Z"/></svg>