<svg id="Laag_1" data-name="Laag 1" xmlns="http://www.w3.org/2000/svg" viewBox="0 0 165.23 118.52"><defs><style>.cls-1{fill:red;}</style></defs><path class="cls-1" d="M82.62,0C37.06,0,0,26.58,0,59.26s37.06,59.26,82.62,59.26,82.61-26.58,82.61-59.26S128.17,0,82.62,0ZM48.08,93.72c0-.74,0-1.47,0-2.2a92.36,92.36,0,0,0,20.63,4.64c.05,6.2.31,12.2.76,17.92a103.86,103.86,0,0,1-20-4.37A70.62,70.62,0,0,1,48.08,93.72Zm48.43-1.33c0-6.78-.37-14.4-1.05-21.83a98,98,0,0,0,17.48-3.46,80.72,80.72,0,0,1,4,20.26A89.16,89.16,0,0,1,96.51,92.39Zm-1.42-25.5C93.82,55.27,91.63,44.56,88.3,38.8c9.76,2.62,18.15,11.86,23.32,24.76A95.5,95.5,0,0,1,95.09,66.89Zm-3.58.34c-2.9.23-5.87.36-8.89.36s-6-.13-8.9-.36C75.86,48,80,38,82.62,38S89.37,48,91.51,67.23Zm-21.37-.34A95.81,95.81,0,0,1,53.6,63.56c5.18-12.9,13.57-22.14,23.34-24.76C73.6,44.56,71.42,55.27,70.14,66.89Zm-.36,3.67c-.69,7.47-1,15.13-1.06,21.94a88.12,88.12,0,0,1-20.45-4.73,81.42,81.42,0,0,1,4-20.67A98.12,98.12,0,0,0,69.78,70.56Zm3.58.33c3,.23,6.1.36,9.26.36s6.25-.13,9.26-.36c.58,6.4.94,13.71,1,21.92-3.35.32-6.77.48-10.23.48s-6.92-.15-10.24-.43C72.41,84.64,72.77,77.31,73.36,70.89Zm43.75,20.24c0,.86,0,1.72,0,2.59a74.77,74.77,0,0,1-1.4,16,103.76,103.76,0,0,1-20,4.38c.46-5.8.71-11.83.77-18A93.56,93.56,0,0,0,117.11,91.13Zm3.61-1.44a44.37,44.37,0,0,0,14-9.07,57.69,57.69,0,0,1,1.51,13.1c0,1.85-.08,4.51-.25,6.47a85.85,85.85,0,0,1-16.24,8.13,82.93,82.93,0,0,0,1.07-14.6C120.82,92.36,120.78,91,120.72,89.69Zm-.25-3.83A83.21,83.21,0,0,0,116.37,66a60,60,0,0,0,9.93-4.5,56.67,56.67,0,0,1,7.27,14.93C130.72,80,126.18,83.23,120.47,85.86Zm-5.41-23.43c-3.6-9-8.69-16.32-14.72-21.26a53.93,53.93,0,0,1,23.72,17.26A58.67,58.67,0,0,1,115.06,62.43Zm-32.44-28A56.48,56.48,0,0,0,38,56.5c-5.69-3.88-9-8.51-9-13.42,0-13.29,24.55-24.51,53.63-24.51s53.62,11.22,53.62,24.5c0,4.92-3.36,9.54-9.05,13.43A56.47,56.47,0,0,0,82.62,34.38ZM64.89,41.17c-6,4.94-11.12,12.3-14.72,21.26a58.67,58.67,0,0,1-9-4A53.93,53.93,0,0,1,64.89,41.17ZM48.86,66a83.67,83.67,0,0,0-4.14,20.32c-5.92-2.69-10.45-6.05-13.06-9.91a56.48,56.48,0,0,1,7.27-14.9A59.2,59.2,0,0,0,48.86,66ZM29,93.72a57.59,57.59,0,0,1,1.48-13c3.27,3.64,8.07,6.8,14,9.34-.05,1.2-.08,2.4-.08,3.62a78.12,78.12,0,0,0,1.05,14.59,85.51,85.51,0,0,1-16.1-8A59.22,59.22,0,0,1,29,93.72ZM73.2,114.46c-.47-5.72-.73-11.73-.79-17.93,3.31.27,6.72.42,10.21.42s6.86-.17,10.21-.48c-.07,6.19-.34,12.22-.81,18-3.08.26-6.22.41-9.4.41S76.29,114.72,73.2,114.46Zm66.62-16.94c.06-1.37.09-2.73.09-3.8A60.42,60.42,0,0,0,129.4,59.53c6.63-4.6,10.51-10.26,10.51-16.46,0-15.79-25.17-28.16-57.29-28.16s-57.3,12.37-57.3,28.17c0,6.19,3.88,11.85,10.51,16.45A60.42,60.42,0,0,0,25.32,93.72c0,1.28,0,2.56.12,3.83C12,87.57,3.67,74.09,3.67,59.26c0-30.66,35.41-55.6,79-55.6s78.94,24.94,78.94,55.6C161.56,74.08,153.28,87.54,139.82,97.52Z"/></svg>