<svg id="Laag_1" data-name="Laag 1" xmlns="http://www.w3.org/2000/svg" viewBox="0 0 165.23 118.52"><defs><style>.cls-1{fill:red;}</style></defs><path class="cls-1" d="M43.35,37.13H68.22v4.65H48.84V55.3H65.19V60H48.84V75.64h20v4.65H43.35Z"/><path class="cls-1" d="M87,62.47V37.13h5.49V62.62c0,10.37,4.39,13.63,10,13.63S112.72,73,112.72,62.62V37.13H118V62.47c0,13.85-6.69,18.61-15.5,18.61S87,76.32,87,62.47Z"/><path class="cls-1" d="M82.61,118.23c-45.32,0-82.2-26.45-82.2-59s36.88-59,82.2-59,82.21,26.45,82.21,59S127.94,118.23,82.61,118.23Zm0-114.3C39.3,3.93,4.06,28.75,4.06,59.26s35.24,55.33,78.55,55.33,78.56-24.82,78.56-55.33S125.93,3.93,82.61,3.93Z"/></svg>